<svg width="20" height="22" viewBox="0 0 20 22" fill="none" xmlns="http://www.w3.org/2000/svg">
<path d="M10.152 21.791H9.81911L9.54773 21.6333L0.393227 17.1673C0.244418 17.1114 0.110586 17.021 0.00244141 16.9033V5.09665C0.0964166 5.00327 0.206889 4.92864 0.328096 4.87665C2.28685 3.92332 4.24439 2.96632 6.20073 2.00565L9.85529 0.208984H10.105L10.3981 0.362984L19.6466 4.87665C19.7674 4.92938 19.8778 5.00393 19.9723 5.09665V16.9033C19.8886 16.9973 19.7862 17.0722 19.672 17.1233L12.3339 20.7093C11.6066 21.065 10.8648 21.4023 10.152 21.791ZM10.3293 15.5577V20.691C10.3293 20.9257 10.3293 20.933 10.5247 20.8413C13.3905 19.4407 16.2562 18.0412 19.122 16.643C19.1891 16.6171 19.2461 16.5699 19.2846 16.5084C19.3231 16.447 19.3409 16.3746 19.3355 16.302C19.3355 12.8969 19.3355 9.48932 19.3355 6.07932C19.3355 5.83365 19.3101 5.81898 19.0858 5.92898C18.3078 6.29565 17.5299 6.69899 16.7447 7.06932C16.6612 7.0988 16.5902 7.15634 16.5435 7.23239C16.4967 7.30843 16.4771 7.39839 16.4878 7.48732C16.4878 8.62032 16.4878 9.74965 16.4878 10.8827C16.5007 10.9659 16.4878 11.0512 16.4509 11.1268C16.414 11.2023 16.3548 11.2643 16.2815 11.3043C15.5144 11.671 14.751 12.0633 13.9766 12.43C13.9253 12.4625 13.8661 12.48 13.8055 12.4806C13.745 12.4812 13.6854 12.4649 13.6335 12.4334C13.5815 12.402 13.5391 12.3566 13.5109 12.3023C13.4827 12.248 13.4698 12.1869 13.4737 12.1257C13.4665 12.0341 13.4665 11.9422 13.4737 11.8507C13.4737 10.791 13.4737 9.72765 13.4737 8.66798C13.4858 8.56894 13.464 8.4687 13.412 8.38396C13.3599 8.29922 13.2808 8.23511 13.1878 8.20232C10.3908 6.83832 7.58295 5.47798 4.78956 4.08465C4.59445 3.96225 4.36953 3.8974 4.14006 3.8974C3.91059 3.8974 3.68567 3.96225 3.49056 4.08465C2.79583 4.48065 2.0613 4.81798 1.34124 5.15165C1.28335 5.18098 1.18565 5.19565 1.18203 5.26898C1.17842 5.34232 1.29059 5.36432 1.3521 5.40098C1.41361 5.43765 1.46427 5.45598 1.51854 5.48532L7.62275 8.46999C7.69964 8.50377 7.7735 8.54425 7.84347 8.59098C7.90571 8.63794 7.94959 8.70566 7.96736 8.7822C7.98513 8.85874 7.97566 8.93918 7.94061 9.00933C7.90556 9.07948 7.8472 9.13484 7.7758 9.16563C7.70441 9.19643 7.62457 9.20068 7.55038 9.17765C7.46437 9.14788 7.38087 9.11109 7.30072 9.06765L0.914273 5.93632C0.65375 5.80798 0.642895 5.81165 0.642895 6.10498C0.642895 9.48565 0.642895 12.8651 0.642895 16.2433C0.634833 16.3324 0.656476 16.4216 0.704362 16.4967C0.752249 16.5718 0.823612 16.6285 0.907037 16.6577L7.25006 19.7597L9.42109 20.8193C9.63819 20.9257 9.64181 20.9257 9.64181 20.6727V12.7673C9.64181 11.9863 9.64181 11.209 9.64181 10.428C9.64995 10.3588 9.63471 10.2889 9.59856 10.2296C9.56241 10.1703 9.5075 10.1252 9.4428 10.1017C9.25464 10.0247 9.08096 9.93298 8.89642 9.83765C8.71188 9.74232 8.5961 9.54799 8.68294 9.36465C8.70595 9.32153 8.73727 9.28353 8.77503 9.25289C8.8128 9.22224 8.85624 9.19959 8.90279 9.18626C8.94935 9.17292 8.99807 9.16919 9.04607 9.17527C9.09408 9.18135 9.14039 9.19712 9.18227 9.22165C9.38852 9.31698 9.59839 9.41598 9.7974 9.52598C9.8524 9.55817 9.9148 9.57511 9.97832 9.57511C10.0418 9.57511 10.1042 9.55817 10.1592 9.52598C10.7635 9.22165 11.3678 8.92832 11.9684 8.63132C12.0491 8.59114 12.1326 8.55683 12.2181 8.52865C12.2875 8.50816 12.3618 8.51311 12.428 8.54261C12.4942 8.57211 12.5479 8.62429 12.5799 8.68999C12.621 8.75259 12.6371 8.82864 12.625 8.90282C12.613 8.97699 12.5736 9.04376 12.5148 9.08965C12.4466 9.14909 12.3697 9.19734 12.2868 9.23265C11.7079 9.51865 11.129 9.80832 10.5428 10.0797C10.4613 10.1065 10.3918 10.1617 10.3468 10.2356C10.3017 10.3095 10.284 10.3971 10.2967 10.483C10.3329 12.1697 10.3293 13.8527 10.3293 15.5393V15.5577ZM16.3467 6.48632C16.4154 6.45698 16.4805 6.43498 16.5421 6.40565L18.6371 5.38265C18.695 5.35332 18.7927 5.34598 18.7891 5.26165C18.7855 5.17732 18.6914 5.16998 18.6299 5.14065C15.8148 3.76687 13.0009 2.38943 10.1882 1.00832C10.1283 0.974937 10.0611 0.957433 9.99279 0.957433C9.92447 0.957433 9.85726 0.974937 9.7974 1.00832L7.68426 2.03132C7.62637 2.06065 7.52867 2.06798 7.53591 2.15232C7.54315 2.23665 7.63361 2.24032 7.6915 2.26965L16.1513 6.40198L16.3467 6.48632ZM15.5 6.88232C15.4783 6.80532 15.3987 6.79432 15.3408 6.76499L11.9359 5.10032L6.89908 2.63632C6.84699 2.59898 6.78609 2.57626 6.72254 2.57046C6.65899 2.56467 6.59507 2.576 6.53724 2.60332C6.06685 2.84532 5.59284 3.07265 5.11883 3.30365C5.07179 3.32932 4.99943 3.34032 4.99943 3.40632C4.99943 3.47232 5.07541 3.47965 5.12245 3.50898L5.19482 3.54565L11.0855 6.42032L13.5931 7.64498C13.6401 7.68087 13.6954 7.70379 13.7538 7.7115C13.8121 7.71922 13.8715 7.71146 13.926 7.68898C14.4145 7.44332 14.9102 7.20498 15.4023 6.95565C15.4385 6.94465 15.4819 6.93365 15.5 6.88232ZM14.1612 9.94032C14.1612 10.417 14.1612 10.8937 14.1612 11.3703C14.1612 11.539 14.2118 11.5647 14.3566 11.4913C14.7799 11.2823 15.2033 11.0733 15.6266 10.8717C15.6852 10.8502 15.7354 10.81 15.7693 10.757C15.8033 10.7041 15.8193 10.6413 15.8148 10.5783C15.8148 9.64699 15.8148 8.71198 15.8148 7.78065C15.8148 7.56432 15.775 7.54232 15.5796 7.63765L14.3421 8.23898C14.2833 8.25871 14.233 8.29819 14.1995 8.35087C14.1659 8.40356 14.1511 8.46628 14.1575 8.52865C14.1648 8.99798 14.1612 9.47098 14.1612 9.94032Z" fill="black"/>
</svg>
