<svg width="28" height="22" viewBox="0 0 28 22" fill="none" xmlns="http://www.w3.org/2000/svg">
<path d="M10.9926 1.18067C11.1374 1.342 11.2712 1.50334 11.1627 1.738C11.1211 1.82525 11.0529 1.89661 10.9682 1.94152C10.8835 1.98642 10.7867 2.00249 10.6923 1.98734C9.39691 1.98734 8.10153 1.98734 6.80615 1.98734C6.59629 1.98734 6.49497 2.02767 6.47688 2.26234C6.42984 2.86367 6.36109 3.465 6.29958 4.06267C6.27425 4.28267 6.41899 4.27534 6.56372 4.27534H9.82026C9.95776 4.27534 10.0953 4.27534 10.2328 4.27534C10.2937 4.27287 10.3544 4.28289 10.4114 4.30482C10.4684 4.32674 10.5204 4.36011 10.5643 4.40292C10.6083 4.44573 10.6432 4.49709 10.6671 4.55393C10.6909 4.61077 10.7032 4.67191 10.7031 4.73367C10.698 4.79488 10.6804 4.85434 10.6514 4.90828C10.6224 4.96223 10.5826 5.00948 10.5347 5.04705C10.4867 5.08463 10.4316 5.11169 10.3728 5.12655C10.3139 5.1414 10.2527 5.14371 10.193 5.13334C8.97356 5.13334 7.75779 5.13334 6.53839 5.13334C6.3032 5.13334 6.19465 5.17367 6.17656 5.45234C6.05715 6.897 5.91603 8.34167 5.76768 9.78267C5.74235 10.0283 5.82557 10.0577 6.0282 10.0577C6.6578 10.0577 7.2874 10.0577 7.92061 10.0577C7.9966 10.0577 8.07621 10.0577 8.15219 10.0577C8.21088 10.0542 8.26965 10.0628 8.32501 10.0828C8.38037 10.1029 8.43117 10.134 8.47439 10.1744C8.51762 10.2148 8.55237 10.2635 8.57659 10.3178C8.60081 10.3721 8.61399 10.4308 8.61534 10.4903C8.61314 10.5496 8.59902 10.6079 8.57385 10.6614C8.54868 10.715 8.51299 10.7628 8.46896 10.802C8.42493 10.8411 8.37349 10.8707 8.31778 10.889C8.26207 10.9073 8.20326 10.9139 8.14495 10.9083C7.54069 10.9083 6.9328 10.9083 6.33576 10.9083C5.73873 10.9083 5.68807 10.9083 5.61209 11.5427C5.55058 12.012 5.52525 12.4813 5.47821 12.9507C5.46012 13.134 5.53248 13.2037 5.7134 13.2C6.17656 13.2 6.64333 13.2 7.1101 13.2H18.4899C18.8915 13.2 18.8771 13.2 18.9096 12.7967C19.0037 11.6967 19.1087 10.5673 19.2027 9.45267C19.2968 8.338 19.3836 7.27467 19.4777 6.18934L19.7708 2.81967C19.7708 2.61067 19.807 2.40167 19.8287 2.19267C19.8287 2.06434 19.8034 1.991 19.6623 1.99467H12.487C12.3025 1.99467 12.1252 1.99467 12.0021 1.815C11.8357 1.562 11.9623 1.37134 12.1324 1.188H20.4764C20.5598 1.24404 20.6254 1.32341 20.6653 1.41647C20.7051 1.50954 20.7174 1.61231 20.7007 1.71234C20.6211 2.64367 20.5451 3.575 20.4619 4.50634C20.3787 5.43767 20.3136 6.26267 20.2303 7.14267C20.2303 7.359 20.2882 7.43967 20.5053 7.43234C20.9685 7.43234 21.4389 7.414 21.902 7.43234C22.6726 7.43843 23.4316 7.62259 24.1214 7.97078C24.8111 8.31898 25.4133 8.82204 25.8823 9.44167C26.4245 10.16 26.7803 11.0046 26.9171 11.8983V13.475C26.8665 13.915 26.823 14.3587 26.7724 14.7987C26.6638 15.785 26.5589 16.775 26.4395 17.7613C26.3888 18.1537 26.2477 18.2563 25.8461 18.26C25.4444 18.2637 25.003 18.26 24.5796 18.26C24.5405 18.2514 24.5 18.2516 24.4609 18.2605C24.4219 18.2695 24.3852 18.287 24.3535 18.3118C24.3218 18.3366 24.2958 18.3681 24.2774 18.4041C24.2589 18.4401 24.2485 18.4798 24.2468 18.5203C24.159 18.9404 23.977 19.3343 23.7148 19.6717C23.2618 20.2579 22.6226 20.6672 21.9057 20.8303H20.8201L20.7731 20.8083C20.1979 20.6899 19.6698 20.4025 19.2548 19.9819C18.8398 19.5613 18.5561 19.0262 18.4392 18.4433C18.3994 18.282 18.309 18.2637 18.1751 18.2637H16.4889C15.1682 18.2637 13.8511 18.2637 12.5304 18.2637C12.2952 18.2637 12.1686 18.3113 12.1216 18.5717C12.0851 18.7447 12.0242 18.9114 11.9406 19.0667C11.7419 19.5123 11.4413 19.9037 11.0638 20.2085C10.6863 20.5132 10.2427 20.7226 9.76961 20.8193H8.71304C8.69844 20.8098 8.68261 20.8024 8.666 20.7973C8.08852 20.6866 7.55657 20.4044 7.13778 19.9865C6.71899 19.5687 6.43226 19.0341 6.31405 18.4507C6.27425 18.282 6.17656 18.2527 6.03544 18.2527C5.5759 18.2527 5.11999 18.2527 4.66045 18.2527C4.29862 18.2527 4.12131 18.0327 4.16112 17.6587C4.24434 16.8593 4.32033 16.0563 4.39631 15.257C4.52657 13.9003 4.64236 12.5437 4.7871 11.187C4.81243 10.945 4.74006 10.901 4.53019 10.9083C4.22987 10.9083 3.92592 10.9083 3.6256 10.9083C3.54766 10.9158 3.4691 10.904 3.39664 10.874C3.32418 10.844 3.25996 10.7966 3.20948 10.736C3.16189 10.6788 3.13175 10.6089 3.12275 10.5346C3.11376 10.4604 3.12629 10.3851 3.15882 10.318C3.19295 10.236 3.25122 10.1666 3.32569 10.1193C3.40016 10.0721 3.4872 10.0493 3.57494 10.054C3.91869 10.054 4.26243 10.054 4.6098 10.054C4.8269 10.054 4.91012 9.99167 4.9246 9.76067C4.94992 9.29867 5.01144 8.83667 5.05486 8.37834C5.14893 7.42867 5.24301 6.48267 5.32624 5.533C5.36242 5.137 5.35156 5.137 4.9644 5.137H0.951613C0.842574 5.14898 0.732286 5.13462 0.629774 5.09511C0.527262 5.05559 0.435439 4.99205 0.361816 4.90967V4.543C0.424036 4.44245 0.514388 4.36295 0.62136 4.31463C0.728331 4.26631 0.847078 4.25135 0.962468 4.27167C2.35193 4.27167 3.74138 4.27167 5.13446 4.27167C5.36966 4.27167 5.4565 4.18367 5.47097 3.96C5.52163 3.322 5.57229 2.68767 5.64465 2.05334C5.67722 1.75267 5.62656 1.41167 5.90518 1.177L10.9926 1.18067ZM12.4074 14.0543H5.72788C5.34071 14.0543 5.33347 14.0543 5.30814 14.4687C5.28643 14.7547 5.25387 15.0407 5.22492 15.3303C5.16703 15.928 5.11275 16.5293 5.05124 17.127C5.02953 17.314 5.08742 17.4093 5.29005 17.3983C5.51421 17.3855 5.73891 17.3855 5.96307 17.3983C6.17656 17.3983 6.27787 17.3433 6.32491 17.1123C6.48459 16.4566 6.85647 15.8741 7.38117 15.4576C7.90587 15.0412 8.55313 14.8149 9.21961 14.8149C9.88609 14.8149 10.5334 15.0412 11.0581 15.4576C11.5828 15.8741 11.9546 16.4566 12.1143 17.1123C12.1758 17.3543 12.2808 17.4093 12.5051 17.4093C14.3432 17.4093 16.1826 17.4093 18.0231 17.4093C18.0718 17.4165 18.1214 17.4136 18.1689 17.4007C18.2164 17.3878 18.2609 17.3652 18.2995 17.3343C18.3381 17.3034 18.3701 17.2649 18.3935 17.221C18.4169 17.1772 18.4312 17.129 18.4356 17.0793C18.623 16.3349 19.0851 15.6916 19.7267 15.2823C20.3683 14.8729 21.1405 14.7287 21.8839 14.8793C22.4525 14.9726 22.9807 15.2355 23.401 15.6346C23.8212 16.0337 24.1145 16.5508 24.2431 17.1197C24.2938 17.3213 24.3662 17.4167 24.605 17.3983C24.88 17.38 25.1586 17.3983 25.4336 17.3983C25.5856 17.3983 25.6652 17.3617 25.6833 17.1857C25.7797 16.1957 25.8871 15.2057 26.0053 14.2157C26.0053 14.0543 25.9691 13.9957 25.8316 13.9627C25.3846 13.8461 24.9802 13.6017 24.6665 13.2587C24.3698 12.9507 24.0948 12.6243 23.8089 12.3127C23.4457 11.8609 22.93 11.5617 22.3616 11.473C21.5956 11.4217 20.8274 11.4106 20.0603 11.44C19.9119 11.44 19.9047 11.55 19.8938 11.6563C19.8468 12.232 19.7925 12.804 19.7455 13.3797C19.6984 13.9553 19.5899 14.058 19.0218 14.058L12.4074 14.0543ZM26.1102 12.562C26.1102 12.4337 26.0777 12.287 26.0632 12.1403C25.9753 11.2551 25.6182 10.4195 25.0413 9.74882C24.4644 9.07818 23.6962 8.60569 22.8428 8.39667C22.5208 8.31967 22.481 8.33434 22.481 8.67534C22.4303 9.25834 22.3869 9.84134 22.3326 10.4243C22.3326 10.5637 22.3724 10.6113 22.4955 10.6333C23.3495 10.8112 24.1115 11.2956 24.6412 11.9973C24.9193 12.3776 25.2566 12.7095 25.6398 12.98C26.0017 13.2037 26.0559 13.1853 26.103 12.7637C26.0957 12.705 26.0994 12.6427 26.1102 12.562ZM23.4724 17.8273C23.4667 17.399 23.336 16.982 23.0969 16.6287C22.8578 16.2755 22.5208 16.0018 22.1285 15.8423C21.7362 15.6827 21.3061 15.6443 20.8923 15.7319C20.4785 15.8196 20.0996 16.0293 19.8032 16.3347C19.5068 16.6402 19.3062 17.0277 19.2267 17.4484C19.1472 17.8691 19.1923 18.3043 19.3563 18.6991C19.5204 19.0939 19.796 19.4307 20.1486 19.667C20.5012 19.9034 20.9148 20.0287 21.3376 20.0273C21.6206 20.0259 21.9005 19.9678 22.1612 19.8562C22.422 19.7447 22.6584 19.582 22.8568 19.3775C23.0552 19.1731 23.2118 18.9308 23.3174 18.6648C23.4231 18.3987 23.4758 18.1141 23.4724 17.8273ZM11.3906 17.8273C11.3942 17.3907 11.2695 16.9628 11.0323 16.5982C10.7951 16.2337 10.4563 15.9488 10.0588 15.7801C9.66139 15.6113 9.22338 15.5662 8.80056 15.6505C8.37774 15.7348 7.98925 15.9447 7.68454 16.2534C7.37983 16.5622 7.17269 16.9559 7.0895 17.3844C7.00631 17.8128 7.05083 18.2567 7.21738 18.6594C7.38394 19.0621 7.66501 19.4055 8.02479 19.6459C8.38457 19.8862 8.8068 20.0126 9.23771 20.009C9.80662 20.0042 10.3509 19.7733 10.7536 19.366C11.1562 18.9587 11.385 18.4075 11.3906 17.831V17.8273ZM20.7044 10.5673H21.2724C21.4063 10.5673 21.4823 10.5123 21.4932 10.3693C21.5438 9.75334 21.5945 9.13367 21.6524 8.51767C21.6524 8.33067 21.5909 8.272 21.4136 8.27567C21.0517 8.27567 20.6899 8.27567 20.3534 8.27567C20.1869 8.27567 20.1327 8.34167 20.1182 8.50667C20.082 9.01634 20.0241 9.52967 19.9771 10.043C19.93 10.5563 19.93 10.5673 20.4438 10.5673H20.7044Z" fill="black" stroke="white" stroke-width="0.553627" stroke-miterlimit="10"/>
</svg>
