<?xml version="1.0" encoding="utf-8"?>
<!-- Generator: Adobe Illustrator 23.0.1, SVG Export Plug-In . SVG Version: 6.00 Build 0)  -->
<svg version="1.1" id="Layer_1" xmlns="http://www.w3.org/2000/svg" xmlns:xlink="http://www.w3.org/1999/xlink" x="0px" y="0px"
	 width="511.5px" height="241.9px" viewBox="0 0 511.5 241.9" style="enable-background:new 0 0 511.5 241.9;" xml:space="preserve"
	>
<style type="text/css">
	.st0{fill:#21AD79;}
	.st1{fill:#FFFFFF;}
	.st2{fill:#21B685;}
	.st3{fill:#00562F;}
</style>
<g>
	<rect y="146" class="st0" width="95.9" height="95.9"/>
	<rect x="103.8" y="146" class="st0" width="95.9" height="95.9"/>
	<rect x="207.8" y="146" class="st0" width="95.9" height="95.9"/>
	<rect x="311.6" y="146" class="st0" width="95.9" height="95.9"/>
	<rect x="415.6" y="146" class="st0" width="95.9" height="95.9"/>
	<g>
		<path class="st1" d="M48,210.7l14.7-3.7l6,18.9L48,210.7z M81.5,186.4H55.8L48,162.2l-7.9,24.1H14.4l20.7,14.9l-7.9,24.1L48,210.5
			l12.8-9.2L81.5,186.4L81.5,186.4L81.5,186.4L81.5,186.4z"/>
	</g>
	<g>
		<path class="st1" d="M151.7,210.7l14.7-3.7l6,18.9L151.7,210.7z M185.3,186.4h-25.7l-7.9-24.1l-7.9,24.1h-25.7l20.7,14.9
			l-7.9,24.1l20.7-14.9l12.8-9.2L185.3,186.4L185.3,186.4L185.3,186.4L185.3,186.4z"/>
	</g>
	<g>
		<path class="st1" d="M255.8,210.7l14.7-3.7l6,18.9L255.8,210.7z M289.3,186.4h-25.7l-7.9-24.1l-7.9,24.1h-25.7l20.7,14.9
			l-7.9,24.1l20.7-14.9l12.8-9.2L289.3,186.4L289.3,186.4L289.3,186.4L289.3,186.4z"/>
	</g>
	<g>
		<path class="st1" d="M359.5,210.7l14.7-3.7l6,18.9L359.5,210.7z M393.1,186.4h-25.7l-7.9-24.1l-7.9,24.1H326l20.7,14.9l-7.9,24.1
			l20.7-14.9l12.8-9.2L393.1,186.4L393.1,186.4L393.1,186.4L393.1,186.4z"/>
	</g>
	<g>
		<path class="st1" d="M463.5,210.7l14.7-3.7l6,18.9L463.5,210.7z M497.1,186.4h-25.7l-7.9-24.1l-7.9,24.1H430l20.7,14.9l-7.9,24.1
			l20.7-14.9l12.8-9.2L497.1,186.4L497.1,186.4L497.1,186.4L497.1,186.4z"/>
	</g>
</g>
<g>
	<g>
		<path class="st1" d="M134.3,44.4h51.8v9.7h-20.3v54.3h-11.2V54.1h-20.2v-9.7H134.3z M183.8,62.1h9.6v9h0.2
			c0.3-1.3,0.9-2.5,1.7-3.7c0.9-1.2,1.9-2.3,3.1-3.3c1.2-1,2.6-1.8,4.1-2.4c1.5-0.6,3-0.9,4.6-0.9c1.2,0,2,0,2.5,0.1
			c0.4,0.1,0.9,0.1,1.4,0.2v9.8c-0.7-0.1-1.4-0.2-2.2-0.3c-0.7-0.1-1.5-0.1-2.2-0.1c-1.7,0-3.4,0.3-4.9,1s-2.9,1.7-4,3s-2,3-2.7,5
			s-1,4.2-1,6.8v22h-10.2L183.8,62.1L183.8,62.1z M257.8,108.4h-10V102h-0.2c-1.3,2.3-3.1,4.2-5.6,5.6s-5,2.1-7.6,2.1
			c-6.1,0-10.5-1.5-13.2-4.5s-4.1-7.6-4.1-13.7V62.1h10.2v28.4c0,4.1,0.8,6.9,2.3,8.6c1.6,1.7,3.7,2.5,6.5,2.5c2.1,0,3.9-0.3,5.4-1
			c1.4-0.7,2.6-1.5,3.5-2.6s1.5-2.4,1.9-4s0.6-3.2,0.6-5V62.1h10.2v46.3H257.8z M275.2,93.5c0.3,3,1.4,5.1,3.4,6.3
			c2,1.2,4.3,1.8,7.1,1.8c1,0,2-0.1,3.3-0.2c1.2-0.1,2.4-0.4,3.4-0.9c1.1-0.4,2-1,2.6-1.8c0.7-0.8,1-1.9,0.9-3.2
			c-0.1-1.3-0.5-2.4-1.4-3.2c-0.9-0.8-2-1.5-3.4-2s-3-0.9-4.8-1.3s-3.6-0.7-5.5-1.2c-1.9-0.4-3.7-0.9-5.5-1.5s-3.3-1.4-4.7-2.4
			c-1.4-1-2.5-2.3-3.4-3.9c-0.8-1.6-1.3-3.5-1.3-5.9c0-2.5,0.6-4.6,1.8-6.3c1.2-1.7,2.8-3.1,4.7-4.1c1.9-1,4-1.8,6.3-2.2
			s4.5-0.6,6.6-0.6c2.4,0,4.7,0.3,6.8,0.8c2.2,0.5,4.1,1.3,5.9,2.5c1.8,1.1,3.2,2.6,4.4,4.4c1.2,1.8,1.9,4,2.2,6.6H294
			c-0.5-2.4-1.6-4.1-3.4-4.9s-3.8-1.3-6-1.3c-0.7,0-1.6,0.1-2.6,0.2s-1.9,0.3-2.8,0.7c-0.9,0.3-1.6,0.8-2.2,1.4s-0.9,1.4-0.9,2.5
			c0,1.3,0.4,2.3,1.3,3c0.9,0.8,2,1.4,3.4,1.9s3,0.9,4.8,1.3s3.6,0.7,5.6,1.2c1.8,0.4,3.7,0.9,5.5,1.5s3.4,1.4,4.8,2.4
			s2.5,2.3,3.4,3.9s1.3,3.5,1.3,5.7c0,2.7-0.6,5.1-1.9,7s-2.9,3.5-4.9,4.7s-4.2,2.1-6.7,2.6c-2.4,0.5-4.9,0.8-7.3,0.8
			c-2.9,0-5.6-0.3-8.1-1s-4.6-1.7-6.4-3s-3.3-3-4.3-5s-1.6-4.4-1.7-7.1h10.3V93.5z M308.8,62.1h7.7V48.2h10.2v13.9h9.2v7.6h-9.2
			v24.7c0,1.1,0,2,0.1,2.8s0.3,1.4,0.6,2c0.3,0.5,0.8,0.9,1.5,1.2c0.7,0.3,1.6,0.4,2.7,0.4c0.7,0,1.4,0,2.1,0s1.4-0.1,2.1-0.3v7.9
			c-1.1,0.1-2.2,0.2-3.3,0.4c-1.1,0.1-2.2,0.2-3.3,0.2c-2.7,0-4.9-0.3-6.5-0.8s-2.9-1.3-3.9-2.2c-0.9-1-1.6-2.2-1.9-3.7
			s-0.5-3.2-0.6-5.1V69.7h-7.7v-7.6H308.8z M343.1,62.1h9.7v6.3h0.2c1.4-2.7,3.4-4.6,6-5.8s5.3-1.7,8.3-1.7c3.6,0,6.8,0.6,9.5,1.9
			s5,3,6.8,5.3c1.8,2.2,3.1,4.9,4,7.8c0.9,3,1.3,6.2,1.3,9.6c0,3.1-0.4,6.1-1.2,9c-0.8,2.9-2,5.5-3.7,7.7c-1.6,2.2-3.7,4-6.2,5.4
			c-2.5,1.3-5.5,2-8.9,2c-1.5,0-3-0.1-4.5-0.4s-2.9-0.7-4.3-1.3c-1.4-0.6-2.6-1.4-3.8-2.3c-1.2-0.9-2.1-2-2.9-3.3h-0.2v23.1H343
			V62.1H343.1z M378.8,85.3c0-2.1-0.3-4.1-0.8-6.1s-1.3-3.7-2.4-5.2s-2.4-2.7-4-3.7c-1.6-0.9-3.5-1.4-5.6-1.4
			c-4.3,0-7.5,1.5-9.7,4.5s-3.3,7-3.3,11.9c0,2.3,0.3,4.5,0.9,6.5s1.4,3.7,2.6,5.1c1.1,1.4,2.5,2.6,4.1,3.4s3.4,1.3,5.5,1.3
			c2.3,0,4.3-0.5,5.9-1.4c1.6-1,2.9-2.2,4-3.7c1-1.5,1.8-3.3,2.2-5.2C378.5,89.3,378.8,87.3,378.8,85.3z M396.8,44.4H407v9.7h-10.2
			V44.4z M396.8,62.1H407v46.3h-10.2V62.1z M416.1,44.4h10.2v63.9h-10.2V44.4z M457.5,109.6c-3.7,0-7-0.6-9.9-1.8
			c-2.9-1.2-5.3-2.9-7.3-5.1c-2-2.1-3.5-4.7-4.6-7.7c-1-3-1.6-6.3-1.6-9.8s0.5-6.8,1.6-9.8c1-3,2.6-5.6,4.6-7.7s4.4-3.8,7.3-5.1
			c2.9-1.2,6.2-1.8,9.9-1.8c3.7,0,7,0.6,9.9,1.8s5.3,2.9,7.3,5.1c2,2.1,3.5,4.7,4.6,7.7c1,3,1.6,6.2,1.6,9.8c0,3.6-0.5,6.9-1.6,9.8
			c-1,3-2.6,5.6-4.6,7.7s-4.4,3.8-7.3,5.1C464.5,109,461.2,109.6,457.5,109.6z M457.5,101.6c2.3,0,4.2-0.5,5.9-1.4
			c1.7-1,3-2.2,4.1-3.8c1.1-1.6,1.9-3.3,2.4-5.2c0.5-1.9,0.8-3.9,0.8-6c0-2-0.3-3.9-0.8-5.9s-1.3-3.7-2.4-5.2s-2.4-2.8-4.1-3.7
			c-1.7-1-3.6-1.4-5.9-1.4s-4.2,0.5-5.9,1.4c-1.7,1-3,2.2-4.1,3.7s-1.9,3.3-2.4,5.2c-0.5,2-0.8,3.9-0.8,5.9s0.3,4,0.8,6
			c0.5,1.9,1.3,3.7,2.4,5.2c1.1,1.6,2.4,2.8,4.1,3.8C453.3,101.1,455.3,101.6,457.5,101.6z M483.9,62.1h7.7V48.2h10.2v13.9h9.2v7.6
			h-9.2v24.7c0,1.1,0,2,0.1,2.8s0.3,1.4,0.6,2c0.3,0.5,0.8,0.9,1.5,1.2c0.7,0.3,1.6,0.4,2.7,0.4c0.7,0,1.4,0,2.1,0s1.4-0.1,2.1-0.3
			v7.9c-1.1,0.1-2.2,0.2-3.3,0.4c-1.1,0.1-2.2,0.2-3.3,0.2c-2.7,0-4.9-0.3-6.5-0.8s-2.9-1.3-3.9-2.2c-0.9-1-1.6-2.2-1.9-3.7
			s-0.5-3.2-0.6-5.1V69.7h-7.7v-7.6H483.9z"/>
		<polygon class="st2" points="122.4,44.5 75.6,44.5 61.2,0 46.8,44.5 0,44.4 37.8,71.9 23.4,116.4 61.2,88.9 99,116.4 84.6,71.9 
			122.4,44.5 122.4,44.5 		"/>
	</g>
	<polygon class="st3" points="87.8,82 84.6,71.9 61.2,88.9 	"/>
</g>
</svg>
