<svg width="16" height="16" viewBox="0 0 16 16" fill="none" xmlns="http://www.w3.org/2000/svg">
<path d="M3.6275 12.5C3.78245 12.0609 4.0698 11.6806 4.44995 11.4116C4.8301 11.1426 5.28432 10.9982 5.75 10.9982C6.21568 10.9982 6.6699 11.1426 7.05005 11.4116C7.4302 11.6806 7.71755 12.0609 7.8725 12.5H15.5V14H7.8725C7.71755 14.4392 7.4302 14.8194 7.05005 15.0884C6.6699 15.3574 6.21568 15.5018 5.75 15.5018C5.28432 15.5018 4.8301 15.3574 4.44995 15.0884C4.0698 14.8194 3.78245 14.4392 3.6275 14H0.5V12.5H3.6275ZM8.1275 7.25C8.28245 6.81085 8.5698 6.43057 8.94995 6.16159C9.3301 5.89261 9.78432 5.74816 10.25 5.74816C10.7157 5.74816 11.1699 5.89261 11.5501 6.16159C11.9302 6.43057 12.2175 6.81085 12.3725 7.25H15.5V8.75H12.3725C12.2175 9.18915 11.9302 9.56943 11.5501 9.83841C11.1699 10.1074 10.7157 10.2518 10.25 10.2518C9.78432 10.2518 9.3301 10.1074 8.94995 9.83841C8.5698 9.56943 8.28245 9.18915 8.1275 8.75H0.5V7.25H8.1275ZM3.6275 2C3.78245 1.56085 4.0698 1.18057 4.44995 0.911591C4.8301 0.642608 5.28432 0.498161 5.75 0.498161C6.21568 0.498161 6.6699 0.642608 7.05005 0.911591C7.4302 1.18057 7.71755 1.56085 7.8725 2H15.5V3.5H7.8725C7.71755 3.93915 7.4302 4.31942 7.05005 4.58841C6.6699 4.85739 6.21568 5.00184 5.75 5.00184C5.28432 5.00184 4.8301 4.85739 4.44995 4.58841C4.0698 4.31942 3.78245 3.93915 3.6275 3.5H0.5V2H3.6275Z" fill="black"/>
</svg>
