<?xml version="1.0" standalone="no"?>
<!DOCTYPE svg PUBLIC "-//W3C//DTD SVG 1.1//EN" "http://www.w3.org/Graphics/SVG/1.1/DTD/svg11.dtd">
<svg xmlns="http://www.w3.org/2000/svg">
<metadata>Copyright (C) 2019 by original authors @ fontello.com</metadata>
<defs>
<font id="one-page-checkout" horiz-adv-x="1000" >
<font-face font-family="one-page-checkout" font-weight="400" font-stretch="normal" units-per-em="1000" ascent="850" descent="-150" />
<missing-glyph horiz-adv-x="1000" />
<glyph glyph-name="target" unicode="&#xe800;" d="M1000 349q0-136-67-251t-182-182-251-67-251 67-182 182-67 251 67 251 182 182 251 67 251-67 182-182 67-251z m-152-59h-142v118h142q-19 110-99 190t-190 99v-142h-118v142q-110-19-190-99t-99-190h142v-118h-142q19-110 99-190t190-99v142h118v-142q110 19 190 99t99 190z" horiz-adv-x="1000" />

<glyph glyph-name="target-1" unicode="&#xe801;" d="M521 407l0 162q60-16 103-60t59-102l-162 0z m0-113l162 0q-16-59-59-103t-103-59l0 162z m-113 113l-162 0q16 59 59 102t103 60l0-162z m0-113l0-162q-60 16-103 59t-59 103l162 0z m113 390l0 113q152-19 261-128t129-262l-113 0q-18 107-95 183t-182 94z m-390-277l-113 0q19 152 128 261t262 129l0-113q-106-18-182-94t-95-183z m277-390l0-114q-154 19-262 129t-128 262l113 0q18-107 95-183t182-94z m390 277l113 0q-21-153-129-262t-261-129l0 114q105 18 182 94t95 183z" horiz-adv-x="928" />

<glyph glyph-name="location" unicode="&#xe802;" d="M429 493q0 59-42 101t-101 42-101-42-42-101 42-101 101-42 101 42 42 101z m142 0q0-61-18-100l-203-432q-9-18-27-29t-37-11-38 11-26 29l-204 432q-18 39-18 100 0 118 84 202t202 84 202-84 83-202z" horiz-adv-x="571.4" />

<glyph glyph-name="location-1" unicode="&#xe803;" d="M711 725q122-120 122-290t-122-290l-295-290-293 290q-123 120-123 290t123 290 295 120 293-120z m-295-426q55 0 93 37 39 39 39 92t-39 92-93 39q-52 0-91-39t-39-92 39-92q38-37 91-37z" horiz-adv-x="833" />

<glyph glyph-name="location-2" unicode="&#xe804;" d="M0 473q0 156 110 267t267 110 267-110 110-267q0-123-53-193l-324-430-324 430q-53 70-53 193z m219 0q0-66 46-112t112-46 112 46 46 112-46 112-112 46-112-46-46-112z" horiz-adv-x="754" />

<glyph glyph-name="check" unicode="&#xe805;" d="M750 725l-375-375-125 125-125-125 250-250 500 500z" horiz-adv-x="1000" />

<glyph glyph-name="circle-thin" unicode="&#xe806;" d="M500 770c-49 0-94-10-139-29-45-18-82-43-113-76-33-32-58-69-76-114-20-45-29-90-29-138 0-49 9-94 29-139 18-45 43-82 76-113 31-34 68-59 113-77 45-19 90-29 139-29 49 0 94 10 139 29 45 18 82 43 113 77 33 31 59 68 76 113 20 45 29 90 29 139 0 48-9 93-29 138-17 45-43 82-76 114-31 33-68 58-113 76-45 19-90 29-139 29z m428-357c0-79-18-151-57-215-39-67-90-117-156-157-65-39-137-56-215-56-78 0-150 17-215 56-66 40-117 90-156 157-39 64-57 136-57 215 0 78 18 150 57 214 39 67 90 118 156 157 65 39 137 56 215 56 78 0 150-17 215-56 66-39 117-90 156-157 39-64 57-136 57-214z" horiz-adv-x="1000" />

<glyph glyph-name="checkbox" unicode="&#xe807;" d="M920 668l-86 88c-2 2-8 4-12 4-4 0-7-2-11-4l-311-312-60 60c-6 6-18 6-24 0l-86-86c-4-3-4-7-4-11 0-4 0-8 4-12l158-156c2-4 6-6 12-6 0 0 0 0 0 0 0 0 0 0 0 0 4 0 8 2 12 6l408 408c6 6 6 16 0 21z m-199-293l0-210-442 0 0 441 311 0 100 100-458 0 0 0c0 0 0 0-1 0-28 0-49-24-51-51l0 0 0-539 0 0c2-28 23-51 51-51l0 0 539 0 0 0c27 0 48 23 50 51l0 0 0 361z" horiz-adv-x="1000" />

<glyph glyph-name="check-1" unicode="&#xe808;" d="M932 596c0-14-4-27-16-37l-402-404-76-76c-12-10-24-16-40-16-13 0-27 6-37 16l-277 277c-12 12-16 23-16 39 0 14 4 27 16 37l74 76c12 10 24 16 39 16 14 0 28-6 37-16l164-164 368 367c9 10 23 16 37 16 15 0 27-6 39-16l74-76c12-12 16-23 16-39z" horiz-adv-x="1000" />

<glyph glyph-name="check-square-o" unicode="&#xe809;" d="M822 393l0-178c0-43-15-82-49-113-31-31-68-47-113-47l-463 0c-45 0-82 16-115 47-31 31-47 70-47 113l0 465c0 45 16 82 47 113 33 32 70 47 115 47l463 0c24 0 45-4 67-13 5-2 7-6 9-12 0-8 0-12-5-18l-28-27c-4-2-8-4-12-4-1 0-3 0-5 0-8 2-18 4-26 4l-463 0c-25 0-47-10-64-27-18-18-26-37-26-63l0-465c0-23 8-45 26-62 17-18 39-26 64-26l463 0c26 0 47 8 65 26 17 17 25 39 25 62l0 143c0 4 2 10 6 12l35 37c4 2 8 4 12 4 4 0 6 0 8 0 7-4 11-10 11-18z m129 273l-455-455c-10-7-19-11-31-11-14 0-24 4-33 11l-239 241c-9 9-13 19-13 33 0 12 4 21 13 31l61 61c10 9 19 13 31 13 14 0 24-4 33-13l147-147 361 361c8 10 20 14 31 14 12 0 24-4 32-14l62-60c8-10 12-20 12-33 0-12-4-22-12-32z" horiz-adv-x="1000" />

<glyph glyph-name="check-square" unicode="&#xe80a;" d="M453 188l344 342c6 8 10 15 10 25 0 10-4 18-10 26l-57 56c-8 8-15 12-25 12-10 0-20-4-25-12l-262-260-117 118c-6 7-16 9-26 9-10 0-17-2-25-9l-57-57c-6-8-10-16-10-25 0-10 4-18 10-26l201-199c6-8 14-12 24-12 10 0 19 4 25 12z m475 492l0-535c0-45-16-82-47-113-31-32-68-47-113-47l-536 0c-44 0-82 15-113 47-31 31-47 68-47 113l0 535c0 45 16 82 47 113 31 32 69 47 113 47l536 0c45 0 82-15 113-47 31-31 47-68 47-113z" horiz-adv-x="1000" />

<glyph glyph-name="truck" unicode="&#xe80b;" d="M357 127c0 20-7 36-21 49-14 16-31 22-51 22-19 0-35-6-49-22-15-13-21-29-21-49 0-19 6-37 21-50 14-14 30-22 49-22 20 0 37 8 51 22 14 13 21 31 21 50z m-214 286l214 0 0 142-87 0c-6 0-10-2-14-4l-108-109c-3-4-5-8-5-12z m714-286c0 20-7 36-21 49-14 16-31 22-51 22-19 0-35-6-49-22-15-13-21-29-21-49 0-19 6-37 21-50 14-14 30-22 49-22 20 0 37 8 51 22 14 13 21 31 21 50z m143 608l0-572c0-6 0-10-2-16-2-4-4-8-8-10-4-2-6-4-9-6-2-2-6-4-12-4-8 0-12 0-14 0-2-2-6-2-14 0-7 0-11 0-13 0 0-39-14-74-41-101-28-28-63-41-102-41-39 0-72 13-99 41-30 27-43 62-43 101l-215 0c0-39-14-74-41-101-28-28-63-41-102-41-39 0-72 13-99 41-30 27-43 62-43 101l-36 0c-1 0-5-2-13-4-6-1-12-1-14 0-2 2-6 2-12 2-5-2-11 0-13 4-2 2-6 4-10 6-4 0-6 4-8 10 0 6-2 12-2 16 0 9 4 17 12 25 6 6 16 10 25 10l0 177c0 4 0 10-2 20 0 12 0 18 0 22 2 3 2 11 2 19 2 10 2 16 4 22 2 3 4 9 8 15 4 8 8 14 12 18l111 111c8 6 16 12 27 18 12 4 24 5 34 5l89 0 0 108c0 10 4 19 10 25 8 8 16 12 26 12l572 0c10 0 17-4 25-12 6-6 10-15 10-25z" horiz-adv-x="1000" />

<glyph glyph-name="truck-1" unicode="&#xe80c;" d="M775 555c-5 8-15 14-25 14l-31 0c-18 0-31-14-31-31l0-188c0-18 13-31 31-31l125 0c17 0 31 13 31 31l0 47c0 6-2 12-6 18z m69-205l-125 0 0 188 31 0 94-141z m140 84l-125 188c-17 25-46 41-78 41l-125 0 0 62c0 51-43 94-93 94l-469 0c-51 0-94-43-94-94l0-344c0-50 43-93 94-93l0-94c0-51 43-94 94-94l35 0c13-55 62-94 121-94 58 0 107 39 121 94l164 0c14-55 62-94 121-94 59 0 107 39 121 94l35 0c51 0 94 43 94 94l0 187c0 20-6 37-16 53z m-890-84c-18 0-31 14-31 31l0 344c0 18 13 31 31 31l469 0c17 0 31-13 31-31l0-344c0-17-14-31-31-31z m250-281c-35 0-63 27-63 62 0 35 28 63 63 63 35 0 62-28 62-63 0-35-27-62-62-62z m406 0c-35 0-62 27-62 62 0 35 27 63 62 63 35 0 63-28 63-63 0-35-28-62-63-62z m188 125c0-18-14-31-32-31l-35 0c-14 54-62 93-121 93-59 0-107-39-121-93l-164 0c-14 54-63 93-121 93-59 0-108-39-121-93l-35 0c-18 0-32 13-32 31l0 94 407 0c50 0 93 43 93 93l0 219 125 0c10 0 20-6 26-14l125-187c4-6 6-12 6-18z" horiz-adv-x="1000" />

<glyph glyph-name="credit-card" unicode="&#xe80d;" d="M947 840c24 0 45-8 63-25 17-18 25-39 25-63l0-679c0-24-8-45-25-63-18-17-39-25-63-25l-894 0c-24 0-45 8-63 25-17 18-25 39-25 63l0 679c0 24 8 45 25 63 18 17 39 25 63 25z m-894-70c-4 0-8-2-12-6-4-4-6-8-6-12l0-125 930 0 0 125c0 4-2 8-6 12-4 4-8 6-12 6z m894-715c4 0 8 2 12 6 4 4 6 8 6 12l0 340-930 0 0-340c0-4 2-8 6-12 4-4 8-6 12-6z m-840 72l0 71 143 0 0-71z m215 0l0 71 213 0 0-71z" horiz-adv-x="1000" />

<glyph glyph-name="money" unicode="&#xe80e;" d="M393 270l214 0 0 53-72 0 0 250-62 0-84-76 43-45c15 13 27 25 31 33l2 0 0-162-72 0z m285 143c0-26-4-53-12-81-8-25-18-50-33-74-14-23-33-41-57-56-23-14-49-22-76-22-27 0-53 8-76 22-24 15-43 33-57 56-15 24-25 49-33 74-8 28-12 55-12 81 0 25 4 52 12 80 8 25 18 50 33 74 14 23 33 41 57 56 23 14 49 22 76 22 27 0 53-8 76-22 24-15 43-33 57-56 15-24 25-49 33-74 8-28 12-55 12-80z m287-143l0 285c-39 0-74 14-102 43-27 27-41 61-41 100l-644 0c0-39-14-73-41-100-28-29-63-43-102-43l0-285c39 0 74-14 102-43 27-27 41-61 41-100l644 0c0 39 14 73 41 100 28 29 63 43 102 43z m70 465l0-645c0-9-4-17-10-23-7-8-15-12-25-12l-1000 0c-10 0-18 4-25 12-6 6-10 14-10 23l0 645c0 10 4 17 10 23 7 8 15 12 25 12l1000 0c10 0 18-4 25-12 6-6 10-13 10-23z" horiz-adv-x="1000" />

<glyph glyph-name="fighter-jet" unicode="&#xe80f;" d="M1035 377c0-11-53-31-160-54l-197-18-125-35-35 0-164-197 39 0c9 0 17 0 25-2 8-2 10-4 10-6 0-4-2-6-10-8-8 0-16-2-25-2l-178 0 0 18 35 0 0 232-90 0-107-125-53 0-18 18 0 107 18 0 0 18 72 0 0 6-107 11 0 73 107 13 0 4-72 0 0 18-18 0 0 107 18 18 53 0 107-125 90 0 0 232-35 0 0 18 178 0c9 0 17 0 25-2 8-2 10-4 10-6 0-4-2-6-10-8-8 0-16-2-25-2l-39 0 164-195 35 0 125-37 197-18c98-21 150-39 160-51z" horiz-adv-x="1000" />

<glyph glyph-name="opc-gps" unicode="&#xe810;" d="M0 850h1000v-1000h-1000z m500-333c-92 0-167-75-167-167s75-167 167-167 167 75 167 167-75 167-167 167z m373-125c-20 173-158 311-331 331v85h-84v-85c-173-20-311-158-330-331h-86v-84h86c19-173 157-311 330-331v-85h84v85c173 20 311 158 331 331h85v84h-85z m-373-334c-161 0-292 131-292 292s131 292 292 292 292-131 292-292-131-292-292-292z" horiz-adv-x="1000" />

<glyph glyph-name="map-marker" unicode="&#xe811;" d="M643 555c0 39-14 74-41 102-30 27-63 41-102 41-39 0-72-14-102-41-27-28-41-63-41-102 0-39 14-72 41-101 30-28 63-41 102-41 39 0 72 13 102 41 27 29 41 62 41 101z m142 0c0-41-6-74-17-99l-203-432c-6-12-16-22-28-30-12-7-23-9-37-9-14 0-25 2-37 9-12 8-22 18-27 30l-204 432c-11 25-17 58-17 99 0 80 27 147 84 203 55 55 123 82 201 82 78 0 147-27 201-82 57-56 84-123 84-203z" horiz-adv-x="1000" />

<glyph glyph-name="address" unicode="&#xe812;" d="M426 862c14 0 19-6 19-20 0 0 0-859 0-859 0-14-5-20-19-20 0 0-45 0-45 0-14 0-22 6-22 20 0 0 0 439 0 439 0 0-175 0-175 0-10 0-20 2-28 6-8 2-17 6-25 12 0 0-121 82-121 82-6 4-10 10-10 18 0 5 4 11 10 15 0 0 121 82 121 82 8 6 17 10 25 12 6 2 14 4 28 4 0 0 175 0 175 0 0 0 0 189 0 189 0 14 8 20 22 20 0 0 45 0 45 0m564-207c6-4 10-10 10-16 0-8-4-12-10-16 0 0-119-82-119-82-14-9-21-13-25-13-10-4-18-6-28-6 0 0-302 0-302 0 0 0-39 230-39 230 0 0 341 0 341 0 12 0 22-2 28-4 8-1 15-5 25-11 0 0 119-82 119-82" horiz-adv-x="1000" />

<glyph glyph-name="location-3" unicode="&#xe813;" d="M500 913c-172 0-312-141-312-313 0-174 156-406 312-688 156 282 313 514 313 688 0 172-139 313-313 313z m0-438c-68 0-125 55-125 125 0 68 57 125 125 125 70 0 125-57 125-125 0-70-55-125-125-125z" horiz-adv-x="1000" />

<glyph glyph-name="map-pin-streamline" unicode="&#xe814;" d="M500 913c-184 0-334-151-334-334 0-176 305-618 316-637l18-24 18 24c11 19 316 461 316 637 0 183-150 334-334 334z m0-922c-64 97-291 447-291 588 0 162 131 293 291 293 160 0 291-131 291-293 0-141-226-491-291-588z m0 734c-80 0-146-64-146-146 0-81 66-145 146-145 80 0 147 64 147 145 0 82-67 146-147 146z m0-250c-57 0-103 47-103 104 0 58 46 105 103 105 57 0 104-47 104-105 0-57-47-104-104-104z" horiz-adv-x="1000" />

<glyph glyph-name="shopping-cart" unicode="&#xe815;" d="M393 55c0-19-6-35-22-51-14-13-31-19-49-19-19 0-37 6-50 19-14 16-22 32-22 51 0 20 8 37 22 51 13 14 31 21 50 21 18 0 35-7 49-21 16-14 22-31 22-51z m500 0c0-19-6-35-22-51-14-13-31-19-49-19-19 0-37 6-50 19-14 16-22 32-22 51 0 20 8 37 22 51 13 14 31 21 50 21 18 0 35-7 49-21 16-14 22-31 22-51z m72 608l0-286c0-9-4-17-10-23-6-8-14-12-23-14l-582-66c6-24 7-37 7-39 0-6-3-20-13-37l513 0c10 0 18-4 26-10 6-8 10-16 10-25 0-10-4-18-10-26-8-6-16-10-26-10l-572 0c-10 0-17 4-25 10-6 8-10 16-10 26 0 3 2 9 4 17 4 8 6 14 10 20 2 6 6 13 11 23 6 8 8 14 8 16l-97 459-114 0c-9 0-19 4-25 11-8 6-12 16-12 26 0 10 4 17 12 23 6 8 16 12 25 12l143 0c6 0 10-2 16-4 3-2 7-6 9-8 4-4 6-8 8-13 2-6 4-12 4-16 2-4 2-10 4-16 2-7 2-11 2-15l670 0c10 0 19-4 25-10 8-8 12-16 12-25z" horiz-adv-x="1000" />

<glyph glyph-name="checkbox-checked" unicode="&#xe816;" d="M166 663l402 0 49 82-533 2 0-418 82 84z m0-584c0 3 2 101 2 125-45 66-84 125-84 125l0-333 238-2c0 0-23 38-56 85-32 0-82 0-100 0z m625 0l-246 0-51-85 381 2 0 583-84-82z m-41 771l-344-584-95 166-145-82 238-416 491 832z" horiz-adv-x="1000" />

<glyph glyph-name="child" unicode="&#xe817;" d="M807 606l-164-162 0-459c0-18-6-33-18-45-14-12-27-18-45-18-17 0-31 6-43 18-14 12-19 27-19 45l0 213-36 0 0-213c0-18-5-33-19-45-12-12-25-18-43-18-18 0-31 6-45 18-12 12-18 27-18 45l0 459-164 162c-9 12-15 23-15 39 0 14 6 27 15 37 12 12 24 16 39 16 14 0 28-4 38-16l127-127 207 0 127 127c9 12 23 16 37 16 15 0 27-4 39-16 9-10 15-23 15-37 0-16-6-27-15-39z m-182 92c0-33-12-65-37-88-23-24-53-37-88-37-35 0-64 13-88 37-25 23-37 55-37 88 0 35 12 64 37 90 24 23 53 35 88 35 35 0 65-12 88-35 25-26 37-55 37-90z" horiz-adv-x="1000" />

<glyph glyph-name="basket" unicode="&#xe818;" d="M199 63c0 25 12 49 32 70 19 20 42 30 70 30 27 0 51-10 70-30 20-21 29-45 29-70 0-29-9-53-29-72-19-18-43-28-70-28-28 0-51 10-70 28-20 19-32 43-32 72m500 0c0 25 12 49 32 70 19 20 42 30 70 30 27 0 51-10 70-30 20-21 29-45 29-70 0-29-9-53-29-72-19-18-43-28-70-28-28 0-51 10-70 28-20 19-32 43-32 72m-320 236c-25-8-37-15-35-23 2-10 15-14 45-14 0 0 560 0 560 0 0 0 0-76 0-76 0-14-6-20-19-20 0 0-129 0-129 0 0 0-500 0-500 0 0 0-26 0-26 0-13 0-19 6-19 20 0 0 0 76 0 76 0 0-10 47-10 47 0 0-98 453-98 453 0 0-97 0-97 0 0 0 0 80 0 80 0 14 6 20 19 20 0 0 157 0 157 0 13 0 19-6 19-20 0 0 0-86 0-86 0 0 703 0 703 0 0 0 0-273 0-273 0-16-6-24-17-26 0 0-553-158-553-158" horiz-adv-x="1000" />

<glyph glyph-name="bag" unicode="&#xe819;" d="M904 731c20-18 28-37 26-61 0 0-100-648-100-648-4-20-17-29-37-29 0 0-586 0-586 0-19 0-31 9-39 29-64 414-96 631-98 648-2 24 6 43 24 61 4 4 21 17 53 43 33 23 50 39 56 43 12 10 31 15 57 15 0 0 478 0 478 0 26 0 45-5 57-15 53-39 88-69 109-86m-404-436c37 0 68 10 98 34 27 23 49 52 62 89 14 36 24 67 30 88 5 24 11 45 13 67 0 0-92 0-92 0-25-125-62-188-111-188-51 0-88 63-113 188 0 0-92 0-92 0 31-186 100-278 205-278m-353 368c0 0 705 0 705 0 0 0-112 115-112 115 0 0-482 0-482 0 0 0-111-115-111-115" horiz-adv-x="1000" />

<glyph glyph-name="caddie-shopping-streamline" unicode="&#xe81a;" d="M422 584c2-2 6-2 8-3 2 0 6-2 8-2 2 0 5 2 7 2 2 1 6 1 8 3l125 125c8 10 8 22 0 32-10 7-21 7-31 0l-88-90 0 240c0 12-10 22-21 22-12 0-22-10-22-22l0-240-88 90c-10 7-21 7-31 0-8-10-8-22 0-32z m557 204l-145 0c-10 0-19-6-21-16l-55-234-736 0c-8 0-14-4-18-8-4-6-6-14-2-20l125-375c2-8 10-13 20-13l513 0-10-43-441 0c-47 0-84-38-84-83 0-46 37-84 84-84 45 0 82 38 82 84 0 14-4 30-12 42l317 0c-8-12-12-28-12-42 0-46 37-84 82-84 47 0 84 38 84 84 0 38-25 69-59 79l14 56c2 4 4 6 4 10 0 2 0 2 0 2l141 604 129 0c11 0 21 7 21 19 0 12-10 22-21 22z m-819-625l-111 334 699 0-78-334z m90-167c0-23-19-43-41-43-23 0-43 20-43 43 0 22 20 42 43 42 22 0 41-20 41-42z m459 0c0-23-19-43-43-43-21 0-41 20-41 43 0 22 20 42 41 42 24 0 43-20 43-42z" horiz-adv-x="1000" />

<glyph glyph-name="circle-o" unicode="&#xe81b;" d="M500 715c-55 0-105-13-152-39-47-27-84-64-112-111-25-47-39-98-39-152 0-55 14-106 39-153 28-47 65-84 112-111 47-26 97-39 152-39 55 0 106 13 152 39 47 27 84 64 112 111 25 47 39 98 39 153 0 54-14 105-39 152-28 47-65 84-112 111-46 26-97 39-152 39z m428-302c0-79-18-151-57-215-39-67-90-117-156-157-65-39-137-56-215-56-78 0-150 17-215 56-66 40-117 90-156 157-39 64-57 136-57 215 0 78 18 150 57 214 39 67 90 118 156 157 65 39 137 56 215 56 78 0 150-17 215-56 66-39 117-90 156-157 39-64 57-136 57-214z" horiz-adv-x="1000" />

<glyph glyph-name="dot-circle-o" unicode="&#xe81c;" d="M643 413c0-40-14-73-41-102-30-27-63-41-102-41-39 0-72 14-102 41-27 29-41 62-41 102 0 39 14 72 41 101 30 27 63 41 102 41 39 0 72-14 102-41 27-29 41-62 41-101z m-143 302c-55 0-105-13-152-39-47-27-84-64-112-111-25-47-39-98-39-152 0-55 14-106 39-153 28-47 65-84 112-111 47-26 97-39 152-39 55 0 106 13 152 39 47 27 84 64 112 111 25 47 39 98 39 153 0 54-14 105-39 152-28 47-65 84-112 111-46 26-97 39-152 39z m428-302c0-79-18-151-57-215-39-67-90-117-156-157-65-39-137-56-215-56-78 0-150 17-215 56-66 40-117 90-156 157-39 64-57 136-57 215 0 78 18 150 57 214 39 67 90 118 156 157 65 39 137 56 215 56 78 0 150-17 215-56 66-39 117-90 156-157 39-64 57-136 57-214z" horiz-adv-x="1000" />

<glyph glyph-name="phone" unicode="&#xe81d;" d="M561 352c109 109 148 178 119 207 0 0-8 8-8 8-22 19-35 35-41 47-8 13-10 31-4 54 4 24 20 53 49 88 12 16 25 30 37 39 10 10 21 16 33 16 14 2 24 2 31 2 8 0 18-4 30-14 11-8 19-13 23-17 4-4 14-12 26-26 13-13 19-19 21-21 31-33 29-98-6-194-35-97-103-195-203-294-102-100-199-168-297-206-96-37-160-39-191-7-2 2-10 9-24 23-13 14-23 22-25 25-2 2-8 10-18 24-9 12-13 23-13 31 2 8 2 18 2 29 2 12 5 24 15 36 10 11 22 23 37 37 30 23 53 39 71 47 19 7 37 9 54 2 18-8 30-14 36-18 5-6 19-18 39-37 29-29 97 10 207 119" horiz-adv-x="1000" />

<glyph glyph-name="mail-1" unicode="&#xe81e;" d="M80 649c-21 12-31 25-27 39 0 10 10 14 25 14 0 0 846 0 846 0 25 0 31-10 19-32-3-9-11-15-23-21-10-4-74-39-191-102-120-64-180-97-182-99-12-6-27-10-47-10-19 0-33 4-47 10-2 2-62 35-181 99-118 63-182 98-192 102m850-100c13 6 19 2 19-9 0 0 0-370 0-370 0-9-4-21-15-31-12-12-24-16-34-16 0 0-800 0-800 0-10 0-22 4-34 16-9 10-15 22-15 31 0 0 0 370 0 370 0 11 6 15 19 9 0 0 383-201 383-201 14-6 28-10 47-10 20 0 33 4 47 10 0 0 383 201 383 201" horiz-adv-x="1000" />

<glyph glyph-name="truck-2" unicode="&#xe81f;" d="M27 299l0 401c0 17 8 25 26 25l455 0c6 0 10-2 14-6 1-2 3-6 3-10l0-437c0-6-2-12-5-16-2-6-8-8-14-8l-109 0c-8 0-16 4-22 10-6 6-10 14-10 22 0 29-13 56-43 82-29 27-60 41-95 41-16 0-30-2-43-6-14-4-26-10-36-16-9-4-19-11-27-19-10-10-15-16-21-22-4-6-8-11-14-21-6-8-8-14-8-16-2-2-2-4-4-8-4-11-11-15-23-15-6 0-14 2-20 8-4 0-4 5-4 11z m80-41c0 32 12 61 34 82 23 24 50 35 84 35 31 0 58-11 82-35 21-21 33-50 33-82 0-31-12-58-33-82-24-23-51-33-82-33-34 0-61 10-84 33-22 24-34 51-34 82z m63 0c0-15 6-27 16-37 9-12 23-15 39-15 13 0 27 3 37 15 10 10 15 22 15 37 0 16-5 28-15 37-10 12-24 16-37 16-16 0-30-4-39-16-10-9-16-21-16-37z m20 0c0 8 3 16 11 24 6 8 14 11 24 11 7 0 15-3 21-11 8-8 12-16 12-24 0-8-4-15-12-23-6-8-14-10-21-10-10 0-18 2-24 10-8 8-11 15-11 23z m363 14l0 394c0 6 2 10 6 14 4 2 7 4 13 4l287 0c12 0 20-6 24-18l55-173c23 0 35-14 35-39l0-155c0-6 0-11-4-11-6-6-14-8-20-8-11 0-19 4-23 15-2 4-2 6-4 8 0 2-4 8-8 16-6 8-10 15-16 21-3 6-9 14-19 22-10 8-18 15-27 19-10 6-22 12-36 16-13 4-29 6-43 6-37 0-68-14-95-41-30-26-43-53-43-82 0-8-4-16-10-22-6-6-14-10-21-10l-32 0c-6 0-9 2-13 8-4 4-6 10-6 16z m105-14c0 32 10 61 33 82 24 24 51 35 82 35 34 0 61-11 83-35 23-21 35-50 35-82 0-31-12-58-35-82-22-23-49-33-83-33-31 0-58 10-82 33-23 24-33 51-33 82z m0 385l10-137 18 0c74 0 142-4 205-13l-45 150z m63-385c0-15 4-27 15-37 10-12 22-15 37-15 16 0 28 3 40 15 9 10 15 22 15 37 0 16-6 28-15 37-12 12-24 16-40 16-15 0-27-4-37-16-11-9-15-21-15-37z m19 0c0 8 2 16 10 24 8 8 16 11 23 11 8 0 16-3 24-11 8-8 12-16 12-24 0-8-4-15-12-23-8-8-16-10-24-10-7 0-15 2-23 10-8 8-10 15-10 23z" horiz-adv-x="1000" />

<glyph glyph-name="pedestrian" unicode="&#xe820;" d="M334 336c0 0 2 4 4 12l47 154c4 10 8 16 15 20l63 33c4 2 10 2 18 2 33 0 50-12 50-35l0-4-15-119 103-92c6-4 10-12 12-19l31-137c0-2 0-4 0-8 0-10-2-16-10-21-5-6-13-8-21-8-16 0-25 8-29 23l-36 125-109 94c-8 8-12 16-12 25l0 2 12 96c-2 0-6 0-10-2-6-2-7-4-9-4l-51-129c-4-21-14-31-26-31-7 0-15 2-19 6-6 6-8 12-8 17z m10-195c0 6 0 12 4 14l43 82 21 62c4 8 8 14 14 18 6 4 12 6 19 6 10 0 18-2 26-10 6-6 10-16 10-25 0-2 0-4-2-10l-24-67c0-2 0-2 0-4-2-1-2-3-2-5l-56-77c-6-9-14-13-26-13-8 0-15 2-19 8-6 5-8 13-8 21z m142 482c0 16 4 28 16 38 10 9 23 15 37 15 16 0 29-6 39-15 10-10 14-22 14-38 0-13-6-27-16-37-11-11-23-17-37-17-16 0-27 6-37 17-12 12-16 24-16 37z m57-167c0 7 4 15 12 23 6 6 13 10 21 10 10 0 16-4 24-12l56-61c6-5 10-11 10-19 0-8-4-14-10-20-6-5-11-9-19-9-8 0-14 4-20 9l-66 59c-4 6-8 14-8 20z" horiz-adv-x="1000" />

<glyph glyph-name="map" unicode="&#xe821;" d="M53-93q-23 0-38 16t-15 36l0 521q0 21 15 36l235 235q14 14 34 15t35-11l224-179 202 201q25 25 57 10t32-47l0-520q0-21-16-38l-234-233q-14-14-35-15t-35 11l-224 179-201-202q-15-15-36-15z m51 178q152 150 156 152l0 378-156-156 0-374z m215 149l202-162 0 389-208 165 0-389q1-1 3-2t3-1z m410 7l0 374q-153-151-156-154l0-376z" horiz-adv-x="834" />

<glyph glyph-name="map-1" unicode="&#xe822;" d="M984 600q16-10 16-30l0-584q0-20-16-30-8-6-16-6t-18 6l-216 136-216-136q-18-10-34 0l-218 136-216-136q-16-10-34 0-16 10-16 30l0 584q0 20 16 30l234 146q18 10 34 0l216-136 218 136q16 10 32 0z m-750-450l0 506-168-104 0-506z m234-104l0 506-168 104 0-506z m234 104l0 506-170-104 0-506z m232-104l0 506-168 104 0-506z" horiz-adv-x="1000" />

<glyph glyph-name="search" unicode="&#xe823;" d="M643 386q0 103-73 176t-177 74-177-74-73-176 73-177 177-73 177 73 73 177z m286-465q0-29-22-50t-50-21q-30 0-50 21l-191 191q-100-69-223-69-80 0-153 31t-125 84-84 125-31 153 31 152 84 126 125 84 153 31 153-31 125-84 84-126 31-152q0-123-69-223l191-191q21-21 21-51z" horiz-adv-x="928.6" />

<glyph glyph-name="floppy" unicode="&#xe824;" d="M214-7h429v214h-429v-214z m500 0h72v500q0 8-6 21t-11 20l-157 156q-5 6-19 12t-22 5v-232q0-22-15-38t-38-16h-322q-22 0-37 16t-16 38v232h-72v-714h72v232q0 22 16 38t37 16h465q22 0 38-16t15-38v-232z m-214 518v178q0 8-5 13t-13 5h-107q-7 0-13-5t-5-13v-178q0-7 5-13t13-5h107q7 0 13 5t5 13z m357-18v-518q0-22-15-38t-38-16h-750q-23 0-38 16t-16 38v750q0 22 16 38t38 16h517q23 0 50-12t42-26l156-157q16-15 27-42t11-49z" horiz-adv-x="857.1" />

<glyph glyph-name="direction" unicode="&#xf124;" d="M782 655l-357-714q-10-20-32-20-3 0-8 1-13 3-20 13t-8 22v322h-321q-13 0-22 7t-13 20 2 23 17 17l714 357q7 4 16 4 15 0 25-10 9-8 10-20t-3-22z" horiz-adv-x="785.7" />

<glyph glyph-name="map-2" unicode="&#xf279;" d="M286 850q7 0 12-5t6-13v-821q0-11-10-16l-268-143q-4-2-8-2-7 0-13 5t-5 13v821q0 11 10 16l267 143q4 2 9 2z m696 0q7 0 13-5t5-13v-821q0-11-9-16l-268-143q-4-2-9-2-7 0-12 5t-6 13v821q0 11 10 16l268 143q4 2 8 2z m-625 0q5 0 8-2l286-142q10-6 10-17v-821q0-7-6-13t-12-5q-5 0-8 2l-286 142q-10 6-10 17v821q0 7 6 13t12 5z" horiz-adv-x="1000" />
</font>
</defs>
</svg>
